<?xml version="1.0" encoding="utf-8"?>
<svg version="1.1" xmlns:xlink="http://www.w3.org/1999/xlink" width="370px" height="170px" xmlns="http://www.w3.org/2000/svg">
  <g transform="matrix(1 0 0 1 -10 -1192 )">
    <path d="M 10 1192  L 380 1192  L 380 1362  L 10 1362  L 10 1192  " fill-rule="nonzero" fill="#cccccc" stroke="none" />
    <path d="M 22 1204  L 368 1204  L 368 1350  L 22 1350  L 22 1204  " fill-rule="nonzero" fill="#ffffff" stroke="none" />
    <path d="M 215.15 1243  C 208.01 1243  202.4 1237.39  202.4 1230.25  C 202.4 1223.11  208.01 1217.5  215.15 1217.5  C 222.29 1217.5  227.9 1223.11  227.9 1230.25  C 227.9 1237.39  222.29 1243  215.15 1243  " fill-rule="nonzero" fill="#cccccc" stroke="none" />
    <path d="M 27 1346  L 27 1270.65  L 111.25 1236.4  L 229.2 1308.23243243243  L 296.6 1256.95  L 364 1308.23243243243  L 364 1346  L 27 1346  " fill-rule="nonzero" fill="#169bd5" stroke="none" />
  </g>
</svg>