<?xml version="1.0" encoding="utf-8"?>
<svg version="1.1" xmlns:xlink="http://www.w3.org/1999/xlink" width="370px" height="170px" xmlns="http://www.w3.org/2000/svg">
  <g transform="matrix(1 0 0 1 -10 -1017 )">
    <path d="M 10 1017  L 380 1017  L 380 1187  L 10 1187  L 10 1017  " fill-rule="nonzero" fill="#cccccc" stroke="none" />
    <path d="M 22 1029  L 368 1029  L 368 1175  L 22 1175  L 22 1029  " fill-rule="nonzero" fill="#ffffff" stroke="none" />
    <path d="M 215.15 1068  C 208.01 1068  202.4 1062.39  202.4 1055.25  C 202.4 1048.11  208.01 1042.5  215.15 1042.5  C 222.29 1042.5  227.9 1048.11  227.9 1055.25  C 227.9 1062.39  222.29 1068  215.15 1068  " fill-rule="nonzero" fill="#cccccc" stroke="none" />
    <path d="M 27 1171  L 27 1095.65  L 111.25 1061.4  L 229.2 1133.23243243243  L 296.6 1081.95  L 364 1133.23243243243  L 364 1171  L 27 1171  " fill-rule="nonzero" fill="#169bd5" stroke="none" />
  </g>
</svg>