<?xml version="1.0" encoding="utf-8"?>
<svg version="1.1" xmlns:xlink="http://www.w3.org/1999/xlink" width="111px" height="73px" xmlns="http://www.w3.org/2000/svg">
  <g transform="matrix(1 0 0 1 -10 -1274 )">
    <path d="M 10 1274  L 121 1274  L 121 1347  L 10 1347  L 10 1274  " fill-rule="nonzero" fill="#cccccc" stroke="none" />
    <path d="M 15 1279  L 116 1279  L 116 1342  L 15 1342  L 15 1279  " fill-rule="nonzero" fill="#ffffff" stroke="none" />
    <path d="M 73.195 1295.9  C 70.129 1295.9  67.72 1293.491  67.72 1290.425  C 67.72 1287.359  70.129 1284.95  73.195 1284.95  C 76.261 1284.95  78.67 1287.359  78.67 1290.425  C 78.67 1293.491  76.261 1295.9  73.195 1295.9  " fill-rule="nonzero" fill="#cccccc" stroke="none" />
    <path d="M 17 1340  L 17 1307.55  L 41.25 1292.8  L 75.2 1316.71891891892  L 94.6 1301.65  L 114 1316.71891891892  L 114 1340  L 17 1340  " fill-rule="nonzero" fill="#169bd5" stroke="none" />
  </g>
</svg>