<?xml version="1.0" encoding="utf-8"?>
<svg version="1.1" xmlns:xlink="http://www.w3.org/1999/xlink" width="370px" height="170px" xmlns="http://www.w3.org/2000/svg">
  <g transform="matrix(1 0 0 1 -10 -1044 )">
    <path d="M 10 1044  L 380 1044  L 380 1214  L 10 1214  L 10 1044  " fill-rule="nonzero" fill="#cccccc" stroke="none" />
    <path d="M 22 1056  L 368 1056  L 368 1202  L 22 1202  L 22 1056  " fill-rule="nonzero" fill="#ffffff" stroke="none" />
    <path d="M 215.15 1095  C 208.01 1095  202.4 1089.39  202.4 1082.25  C 202.4 1075.11  208.01 1069.5  215.15 1069.5  C 222.29 1069.5  227.9 1075.11  227.9 1082.25  C 227.9 1089.39  222.29 1095  215.15 1095  " fill-rule="nonzero" fill="#cccccc" stroke="none" />
    <path d="M 27 1198  L 27 1122.65  L 111.25 1088.4  L 229.2 1160.23243243243  L 296.6 1108.95  L 364 1160.23243243243  L 364 1198  L 27 1198  " fill-rule="nonzero" fill="#169bd5" stroke="none" />
  </g>
</svg>