<?xml version="1.0" encoding="utf-8"?>
<svg version="1.1" xmlns:xlink="http://www.w3.org/1999/xlink" width="111px" height="73px" xmlns="http://www.w3.org/2000/svg">
  <g transform="matrix(1 0 0 1 -10 -1301 )">
    <path d="M 10 1301  L 121 1301  L 121 1374  L 10 1374  L 10 1301  " fill-rule="nonzero" fill="#cccccc" stroke="none" />
    <path d="M 15 1306  L 116 1306  L 116 1369  L 15 1369  L 15 1306  " fill-rule="nonzero" fill="#ffffff" stroke="none" />
    <path d="M 73.195 1322.9  C 70.129 1322.9  67.72 1320.491  67.72 1317.425  C 67.72 1314.359  70.129 1311.95  73.195 1311.95  C 76.261 1311.95  78.67 1314.359  78.67 1317.425  C 78.67 1320.491  76.261 1322.9  73.195 1322.9  " fill-rule="nonzero" fill="#cccccc" stroke="none" />
    <path d="M 17 1367  L 17 1334.55  L 41.25 1319.8  L 75.2 1343.71891891892  L 94.6 1328.65  L 114 1343.71891891892  L 114 1367  L 17 1367  " fill-rule="nonzero" fill="#169bd5" stroke="none" />
  </g>
</svg>