<?xml version="1.0" encoding="utf-8"?>
<svg version="1.1" xmlns:xlink="http://www.w3.org/1999/xlink" width="111px" height="73px" xmlns="http://www.w3.org/2000/svg">
  <g transform="matrix(1 0 0 1 -10 -469 )">
    <path d="M 10 469  L 121 469  L 121 542  L 10 542  L 10 469  " fill-rule="nonzero" fill="#cccccc" stroke="none" />
    <path d="M 15 474  L 116 474  L 116 537  L 15 537  L 15 474  " fill-rule="nonzero" fill="#ffffff" stroke="none" />
    <path d="M 73.195 490.9  C 70.129 490.9  67.72 488.491  67.72 485.425  C 67.72 482.359  70.129 479.95  73.195 479.95  C 76.261 479.95  78.67 482.359  78.67 485.425  C 78.67 488.491  76.261 490.9  73.195 490.9  " fill-rule="nonzero" fill="#cccccc" stroke="none" />
    <path d="M 17 535  L 17 502.55  L 41.25 487.8  L 75.2 511.718918918919  L 94.6 496.65  L 114 511.718918918919  L 114 535  L 17 535  " fill-rule="nonzero" fill="#169bd5" stroke="none" />
  </g>
</svg>